<svg xmlns="http://www.w3.org/2000/svg" xmlns:xlink="http://www.w3.org/1999/xlink" preserveAspectRatio="xMidYMid meet" version="1.0" viewBox="-5.1 -3.1 327.9 268.3" zoomAndPan="magnify" style="fill: rgb(0, 0, 0);" original_string_length="11210"><g id="__id20_sa1j4tdmxp"><path d="m51.862 145.61c-2.8491 4.2724-3.8296 1.0704-4.5593-3.1345l-10.543-16.812 3.9894 0.85488v-1.1398l-3.9894-1.9947-5.1292-19.662-3.4195 0.85487-0.28496-4.8443-1.1398-10.258c-2.587-29.221-31.894-2.473-22.797 2.847 2.4241 5.6042 2.9957 11.208 12.538 16.812 4.2994 7.1196 4.5828 17.108 15.673 19.377l2.5646 1.4248c-1.9917 7.6075 1.5039 13.569 10.258 17.952 1.682 3.7994 3.0237 7.5989-0.56992 11.398l2.2797 1.1398-2.2797 2.2797-0.28496 5.9841 1.9947 2.8496-0.56992 2.2797 1.4248 2.5646-1.1398 3.4195 0.56992 2.8496 9.9735 5.6992-2.2797-3.9894 9.1186 4.8443-4.8443-0.85487 3.9894 4.2744c-4.115 7.6027-5.3163 14.841-0.85487 21.372l-0.56992 5.6992-1.7097-1.4248c-5.4953 11.644 2.1372 26.868 7.9788 41.604l7.9788 0.28495 5.4142 4.2744h8.8337l11.113-7.1239 8.8337-3.1345 6.554 2.8496 4.8443-0.85487v1.9947l7.6939-0.56992-5.4142-1.4248 1.4248-1.9947 4.5593 1.1398 4.8443-1.4248 1.4248-4.5593-1.1398-1.9947 0.85488-1.9947h7.1239l-3.1345 1.4248v1.7097h-1.9947l1.7097 1.4248h-3.1345l-1.7098 4.2744h2.8496l0.56992 4.5593h3.7044l0.28495-4.2744 6.554-3.9894 0.85487 3.7044 8.8337-5.9841-2.2797-1.7097 2.8496-2.2797-1.7097-2.2797h-2.8496l-0.28496 2.5646-15.958-14.533-0.85488-3.1345v-5.6992l0.56992-4.2744-6.554-6.2691-3.7044-7.6939 0.88388-4.5593 9.3746-0.28496v-1.4248l1.1702 1.6794 1.3944 0.0304 3.9986 0.59892 5.12-8.8627 1.4248-2.2797 8.9023-11.124 0.78628-5.1187-5.9841-6.839v-7.4089h-1.9947l-1.4248-1.9947-7.1239 1.4248 0.56991 2.5646-7.9788 6.2691-4.8443 4.5593-3.4195 3.4195-0.56992 4.8443-3.7044 3.9894 2.5646 3.7044v3.4195l-2.2797 4.2744 2.2797 0.85487 0.28496 3.1345-3.4195 6.554-3.1345 9.1186-2.8496 7.1239-1.9947 5.4142c-0.17144-7.1008-4.1673-11.142-9.6886-13.963-13.161 0.27524-10.9-9.2632-13.108-15.958l-6.839-7.1239-5.4142-5.9841-0.28496-3.1345 5.6992-10.258 6.554-2.5646 5.6992 3.4195 5.4142-0.85487 6.839-3.7044 2.5646-4.5593h3.7044l3.9894 3.7044 4.5593 1.7097 3.4195-3.1345 2.2797 0.56991 0.85487 6.554 2.8496-1.1398v-5.6992l2.5646-2.2797 6.839-4.8443 7.1239-1.1398c9.1713-6.0791 7.2295-12.158 5.9841-18.237l-4.5593-13.678v-4.5593l3.9894-1.7098 0.85488-3.4195-0.85488-1.9947 1.4248-3.9894 2.2797-3.9894-11.113-33.625-0.28495 7.1239-2.5646 0.56992-2.8496 13.108-1.7097 10.828v8.5487l2.8496 5.4142 4.2744 1.9947 3.4195 1.4248 0.28496 4.2744-2.2797-1.1398-7.1239-3.1345-1.9947 1.7097-2.8496-0.56991-1.7097-4.2744h-3.7044l-8.8337 0.56992h-4.8443l-1.7097-6.839 4.2744-7.1239c5.341-6.459 5.0002-12.918 3.9894-19.377-6.1667-10.923-0.55464-21.847 1.1398-32.77l2.2797-9.6886-0.28496-6.554-2.2797-6.554 2.8496-1.4248 0.28496-3.9894 33.34 1.4248-3.4195 2.2797 5.6992 7.4089 2.2797 14.248-0.56992 6.554-1.7097 0.28496 1.7097 2.8496 1.1398 7.6939 2.2797 4.2744 1.7097-7.4089v-3.9894l7.9788-15.103-5.6992-4.5593 1.1398-1.7097 1.4248-0.28496-3.1345-1.4248 0.56991-1.4248 2.2797-1.4248-1.7097-3.9894-2.2797-3.4195-4.5593-2.2797-5.1497 1.4195-33.196-1.4608-6.6997-14.205c-15.88-11.389-16.03-1.0361-18.54 6.065v8.4628l-0.40299 13.702 2.418 22.567 1.209 25.791c-0.96465 8.5971-6.4055 17.194 8.8658 25.791l2.418 6.8508-12.896-4.4329-18.538 12.09-1.612 2.418-1.209-4.8359v-12.896l3.2239-2.8209c5.2163-6.2856 8.9365-12.945 5.6419-21.359l-3.6269-6.4479v-13.702c3.6734-7.3121-0.87274-11.102-4.4329-15.314l1.614-12.081c0.197-15.665-14.204-24.757-18.538-9.672-2.0076 3.964-4.2609 7.887 0 12.896-0.12689 10.209-3.4693 20.418 1.209 30.627v16.523l6.4479 18.941c1.9768 5.5112 5.4942 9.7899 2.4179 19.344l1.209 13.702-2.4179 5.2389-3.6269-2.015-3.6269-3.2239-3.2239-0.80598-14.631 5.9734z" style="fill: rgb(92, 225, 230);"/></g><g id="__id21_sa1j4tdmxp"><path d="m265.85 146.3c2.8491 4.2724 3.8296 1.0704 4.5593-3.1345l10.543-16.812-3.9894 0.85488v-1.1398l3.9894-1.9947 5.1292-19.662 3.4195 0.85487 0.28496-4.8443 1.1398-10.258c2.5871-29.219 31.894-2.471 22.797 2.8496-2.4241 5.6042-2.9957 11.208-12.538 16.813-4.2994 7.1196-4.5828 17.108-15.673 19.377l-2.5646 1.4248c1.9917 7.6075-1.5039 13.569-10.258 17.952-1.682 3.7994-3.0237 7.5989 0.56991 11.398l-2.2797 1.1398 2.2797 2.2797 0.28496 5.9841-1.9947 2.8496 0.56991 2.2797-1.4248 2.5646 1.1398 3.4195-0.56991 2.8496-9.9735 5.6992 2.2797-3.9894-9.1186 4.8443 4.8443-0.85487-3.9894 4.2744c4.115 7.6027 5.3163 14.841 0.85487 21.372l0.56992 5.6992 1.7098-1.4248c5.4952 11.644-2.1372 26.868-7.9788 41.604l-7.9788 0.28495-5.4142 4.2744h-8.8337l-11.113-7.1239-8.8337-3.1345-6.554 2.8496-4.8443-0.85487v1.9947l-7.6939-0.56992 5.4142-1.4248-1.4248-1.9947-4.5593 1.1398-4.8443-1.4248-1.4248-4.5593 1.1398-1.9947-0.85488-1.9947h-7.1239l3.1345 1.4248v1.7097h1.9947l-1.7097 1.4248h3.1345l1.7098 4.2744h-2.8496l-0.56992 4.5593h-3.7044l-0.28495-4.2744-6.554-3.9894-0.85487 3.7044-8.8337-5.9841 2.2797-1.7097-2.8496-2.2797 1.7097-2.2797h2.8496l0.28496 2.5646 15.958-14.533 0.85488-3.1345v-5.6992l-0.56992-4.2744 6.554-6.2691 3.7044-7.6939v-4.5593l-10.258-0.28496v-1.4248h-2.8496l0.28496 1.7098-2.8496-0.28496-6.2691-7.9788-1.4248-2.2797-8.5487-12.538-1.1398-3.7044 5.9841-6.839v-7.4089h1.9947l1.4248-1.9947 7.1239 1.4248-0.56991 2.5646 7.9788 6.2691 4.8443 4.5593 3.4195 3.4195 0.56992 4.8443 3.7044 3.9894-2.5646 3.7044v3.4195l2.2797 4.2744-2.2797 0.85487-0.28496 3.1345 3.4195 6.554 3.1345 9.1186 2.8496 7.1239 1.9947 5.4142c0.17144-7.1008 4.1673-11.142 9.6886-13.963 13.161 0.27524 10.9-9.2632 13.108-15.958l6.839-7.1239 5.4142-5.9841 0.28495-3.1345-5.6992-10.258-6.554-2.5646-5.6992 3.4195-5.4142-0.85487-6.839-3.7044-2.5646-4.5593h-3.7044l-3.9894 3.7044-4.5593 1.7097-3.4195-3.1345-2.2797 0.56991-0.85487 6.554-2.8496-1.1398v-5.6992l-2.5646-2.2797-6.839-4.8443-7.1239-1.1398c-9.1713-6.0791-7.2295-12.158-5.9841-18.237l4.5593-13.678v-4.5593l-3.9894-1.7098-0.85488-3.4195 0.85488-1.9947-1.4248-3.9894-2.2797-3.9894 11.113-33.625 0.28495 7.1239 2.5646 0.56991 2.8496 13.108 1.7097 10.828v8.5487l-2.8496 5.4142-4.2744 1.9947-3.4195 1.4248-0.28496 4.2744 2.2797-1.1398 7.1239-3.1345 1.9947 1.7097 2.8496-0.56991 1.7097-4.2744h3.7044l8.8337 0.56992h4.8443l1.7097-6.839-4.2744-7.1239c-5.341-6.459-5.0002-12.918-3.9894-19.377 6.1667-10.923 0.55464-21.847-1.1398-32.77l-2.2797-9.6886 0.28496-6.554 2.2797-6.554-2.8496-1.4248-0.28496-3.9894-33.34 1.4248 3.4195 2.2797-5.6992 7.4089-2.2797 14.248 0.56992 6.554 1.7097 0.28496-1.7097 2.8496-1.1398 7.6939-2.2797 4.2744-1.7097-7.4089v-3.9894l-7.9788-15.103 5.6992-4.5593-1.1398-1.7097-1.4248-0.28496 3.1345-1.4248-0.56991-1.4248-2.2797-1.4248 1.7097-3.9894 2.2797-3.4195 4.5593-2.2797 5.1497 1.4195 33.196-1.4608 6.6997-14.205c15.874-11.409 16.032-1.056 18.538 6.0449v8.4628l0.40299 13.702-2.418 22.567-1.209 25.791c0.96465 8.5971 6.4055 17.194-8.8658 25.791l-2.418 6.8508 12.896-4.4329 18.538 12.09 1.612 2.418 1.209-4.8359v-12.896l-3.2239-2.8209c-5.2163-6.2856-8.9365-12.945-5.6419-21.359l3.6269-6.4478v-13.702c-3.6734-7.3121 0.87274-11.102 4.4329-15.314l-1.612-12.09c-0.19669-15.665 14.204-24.757 18.538-9.6718 2.0076 3.964 4.2609 7.887 0 12.896 0.12689 10.209 3.4693 20.418-1.209 30.627v16.523l-6.4478 18.941c-1.9768 5.5112-5.4942 9.7899-2.418 19.344l-1.209 13.702 2.4179 5.2389 3.6269-2.015 3.6269-3.2239 3.2239-0.80598 14.631 5.9734z" style="fill: rgb(94, 23, 235);"/></g><g id="__id22_sa1j4tdmxp"><path d="m159.15 175.25-16.243 22.939h-2.7071l-2.992-2.1372-0.56992 1.8522-9.6886 0.14248-0.28495 5.1292 3.9894 8.1213 6.1266 5.6992v3.277l-0.42744 1.1398 0.28496 5.9841 0.14248 2.5646 2.8496 1.9947 13.535 12.538 0.28496-2.1372h2.5646l1.9947 2.2797-2.1372 1.8522 4.5593 2.5646 2.5646-2.1372-2.992-2.1372 1.4248-1.5673 2.1372-0.14247 1.1398 1.9947 15.673-13.393 1.5673-4.2744-0.7124-9.6886 5.4142-4.9868 4.4168-8.5487 0.14248-5.2717-10.116-0.28495-0.42743-1.7098-2.5646 0.14248-0.42744 1.8522-2.4221-0.28495-16.1-23.367z" style="fill: rgb(92, 225, 230);"/></g><g id="__id23_sa1j4tdmxp"><path d="m111.42 169.83h-4.4168l-0.56992 1.2823-1.1398 1.2823 3.562 1.7098 1.1398 1.9947 5.4142-0.14248v-1.7097l-2.4221-1.8522-0.99735-0.99735-0.56992-1.5673z" style="fill: rgb(94, 23, 235);"/></g><g id="__id24_sa1j4tdmxp"><path d="m206.1 168.84h4.4168l0.56992 1.2823 1.1398 1.2823-3.562 1.7098-1.1398 1.9947-5.4142-0.14248v-1.7097l2.4221-1.8522 0.99735-0.99735 0.56992-1.5673z" style="fill: rgb(92, 225, 230);"/></g><g id="__id25_sa1j4tdmxp"><path d="m158.98 102.49c-4.34-10.578-7.65-21.687-11.08-32.265l2.0644-4.3198 1.2603-7.7699 1.7127-2.6194-0.80598-0.50374c-4.9044 3.2735-2.8647-23.391 6.1456-28.008l1.0075-0.70523 5.6419 7.5561c1.3687 7.1814 5.6106 15.466 1.5378 20.906l-1.5378 0.25093 1.5112 2.7202 1.5625 8.1729 1.7622 3.4131c-3.0811 10.881-6.5244 22.292-10.78 33.173z" style="fill: rgb(92, 225, 230);"/></g><g id="__id26_sa1j4tdmxp"><path d="m236.96 142.74-4.5336 2.4179-3.5262 2.3172-2.3172 1.7127-1.3097 1.8135-0.40299 7.3546-3.2239 0.70524-3.5262 0.10075-1.7127-0.80599-2.418-2.1157 0.2015 2.3172 0.40299 2.2164 3.7277 1.209 0.30224 1.5112s-2.3172 1.4105-2.7202 1.4105c-0.40299 0-4.2314 0-4.7351-0.10075-0.50374-0.10075-4.8359-0.80598-4.8359-0.80598s-0.80599-4.5336-0.403-4.8359c0.403-0.30225 2.3172-3.5262 2.3172-3.5262l2.3172-1.209-1.1082-4.8359 1.9142-2.8209 1.612-1.3097 1.4105 0.10075 0.10075-1.7127s0.40299-2.6194 0.90673-2.9217c0.50374-0.30225 4.2314-2.9217 4.6344-3.2239 0.40299-0.30224 3.9292-1.612 4.6344-2.015 0.70524-0.40299 2.9217-1.5112 4.0299-1.4105 1.1082 0.10074 5.7426 1.9142 5.7426 1.9142l2.6194 3.8284-0.10074 2.7202z" style="fill: rgb(92, 225, 230);"/></g><g id="__id27_sa1j4tdmxp"><path d="m239.38 142.74h-2.015l-9.8733 5.5411-2.1157 2.6194-0.60449 7.4553-3.5262 0.70524h-3.4254l-2.5187-1.612-1.1082-0.90672 0.30224 4.2314 4.1307 1.3097-0.10075 1.3097-2.2164 1.4105-5.5411 0.10075-4.4329-1.3097 2.7202 4.2314s2.6194 1.9142 3.2239 2.1157c0.60449 0.2015 3.6269 0.70524 3.6269 0.70524l1.4105 0.80598 1.612 0.60449 4.1307-2.9217 2.7202-0.60448 3.0224-3.1232 3.2239-3.8284s0.30224-3.0224 0.90673-3.5262c0.60448-0.50374 2.2164-1.5112 2.2164-1.5112l1.0075-3.5262 2.1157-3.7277 0.90673-0.80598 0.20149-5.7426z" style="fill: rgb(92, 225, 230);"/></g><g id="__id28_sa1j4tdmxp"><path d="m80.243 142.31 4.5336 2.4179 3.5262 2.3172 2.3172 1.7127 1.3097 1.8135 0.40299 7.3546 3.2239 0.70524 3.5262 0.10075 1.7127-0.80599 2.418-2.1157-0.2015 2.3172-0.40299 2.2164-3.7277 1.209-0.30224 1.5112s2.3172 1.4105 2.7202 1.4105c0.40299 0 4.2314 0 4.7351-0.10075 0.50374-0.10075 4.8359-0.80598 4.8359-0.80598s0.80599-4.5336 0.403-4.8359c-0.403-0.30225-2.3172-3.5262-2.3172-3.5262l-2.3172-1.209 1.1082-4.8359-1.9142-2.8209-1.612-1.3097-1.4105 0.10075-0.10075-1.7127s-0.40299-2.6194-0.90673-2.9217c-0.50374-0.30225-4.2314-2.9217-4.6344-3.2239-0.40299-0.30224-3.9292-1.612-4.6344-2.015-0.70524-0.40299-2.9217-1.5112-4.0299-1.4105-1.1082 0.10074-5.7426 1.9142-5.7426 1.9142l-2.6194 3.8284 0.10074 2.7202z" style="fill: rgb(92, 225, 230);"/></g><g id="__id29_sa1j4tdmxp"><path d="m77.825 142.31h2.015l9.8733 5.5411 2.1157 2.6194 0.60449 7.4553 3.5262 0.70524h3.4254l2.5187-1.612 1.1082-0.90672-0.30224 4.2314-4.1307 1.3097 0.10075 1.3097 2.2164 1.4105 5.5411 0.10075 4.4329-1.3097-2.7202 4.2314s-2.6194 1.9142-3.2239 2.1157c-0.60449 0.2015-3.6269 0.70524-3.6269 0.70524l-1.4105 0.80598-1.612 0.60449-4.1307-2.9217-2.7202-0.60448-3.0224-3.1232-3.2239-3.8284s-0.30224-3.0224-0.90673-3.5262c-0.60448-0.50374-2.2164-1.5112-2.2164-1.5112l-1.0075-3.5262-2.1157-3.7277-0.90673-0.80598-0.20149-5.7426z" style="fill: rgb(94, 23, 235);"/></g><script xmlns=""/></svg>